<?xml version="1.0" encoding="UTF-8" standalone="no"?>
<svg
   xmlns:dc="http://purl.org/dc/elements/1.1/"
   xmlns:cc="http://creativecommons.org/ns#"
   xmlns:rdf="http://www.w3.org/1999/02/22-rdf-syntax-ns#"
   xmlns:svg="http://www.w3.org/2000/svg"
   xmlns="http://www.w3.org/2000/svg"
   id="svg9977"
   version="1.1"
   viewBox="0 0 24 24">
  <metadata
     id="metadata9983">
    <rdf:RDF>
      <cc:Work
         rdf:about="">
        <dc:format>image/svg+xml</dc:format>
        <dc:type
           rdf:resource="http://purl.org/dc/dcmitype/StillImage" />
        <dc:title></dc:title>
      </cc:Work>
    </rdf:RDF>
  </metadata>
  <defs
     id="defs9981" />
  <path
     style="fill:#c80059;fill-opacity:1"
     id="path9975"
     d="M15 7v12.97l-4.21-1.81-.79-.34-.79.34L5 19.97V7h10m4-6H8.99C7.89 1 7 1.9 7 3h10c1.1 0 2 .9 2 2v13l2 1V3c0-1.1-.9-2-2-2zm-4 4H5c-1.1 0-2 .9-2 2v16l7-3 7 3V7c0-1.1-.9-2-2-2z" />
</svg>
